<svg width="662" height="52" viewBox="0 0 662 52" fill="none" xmlns="http://www.w3.org/2000/svg">
<path d="M32.1557 12.3529C30.2257 8.38228 24.6957 8.21114 22.5297 12.055L9.89577 34.4755C7.82275 38.1543 10.447 42.7282 14.6307 42.7282H33.5626C36.0915 42.7282 38.1416 44.8035 38.1416 47.3635C38.1416 49.9236 36.0915 51.999 33.5626 51.999H14.6307C3.41829 51.999 -3.61464 39.7411 1.94101 29.8819L14.5749 7.46143C20.3798 -2.84005 35.2003 -2.38147 40.3728 8.25971L58.3857 45.317C59.5023 47.614 58.568 50.3924 56.2988 51.5227C54.0297 52.653 51.2851 51.7071 50.1686 49.4101L32.1557 12.3529Z" fill="white"/>
<path d="M310.442 39.6471C308.511 43.6177 302.981 43.7888 300.815 39.945L288.182 17.5245C286.109 13.8457 288.733 9.27183 292.917 9.27183H311.849C314.377 9.27183 316.427 7.19651 316.427 4.63644C316.427 2.07638 314.377 0.00104782 311.849 0.00104782H292.917C281.704 0.00104782 274.671 12.2589 280.227 22.1181L292.861 44.5386C298.666 54.84 313.486 54.3815 318.658 43.7403L329.814 22.1116C330.931 19.8146 329.997 17.0362 327.727 15.9059C325.458 14.7756 322.714 15.7214 321.597 18.0185L310.442 39.6471Z" fill="white"/>
<path d="M229.737 7.70657L223.353 24.6185C222.334 27.6011 219.092 29.1996 216.112 28.1889C213.132 27.1781 211.542 23.9408 212.561 20.9581L219.082 3.68459C220.166 0.812738 223.331 -0.682913 226.238 0.303146C229.288 1.33767 230.874 4.69355 229.737 7.70657Z" fill="white"/>
<path d="M195.385 3.22827L215.27 43.751C216.659 46.5806 215.497 50.0032 212.675 51.3955C209.853 52.7879 206.44 51.6227 205.051 48.7932L185.155 8.24817C183.771 5.42767 184.931 2.01907 187.749 0.62887C190.575 -0.765616 193.997 0.399093 195.385 3.22827Z" fill="white"/>
<path d="M112 27.437C112 38.3555 106.726 47.3226 97.6543 51.5595C96.0063 52.3292 94.2886 52.0346 93.0211 51.1066C91.7743 50.1934 90.9611 48.6751 90.9566 46.9651C90.9509 44.8539 92.1977 43.0896 93.8 42.0812C98.6474 39.0306 101.87 33.6132 101.87 27.437C101.87 17.9 94.1874 10.1797 84.7246 10.1797C83.0366 10.1797 81.4086 10.4247 79.8714 10.8803C77.5417 11.571 74.672 10.9086 73.2726 8.53366C71.8309 6.08817 72.6171 2.64011 75.584 1.57894C78.4434 0.55617 81.5211 1.50412e-06 84.7246 1.50412e-06C99.7943 1.50412e-06 112 12.29 112 27.437Z" fill="white"/>
<path d="M85.1794 44.4915L67.0429 7.53228C65.7766 4.95193 62.656 3.88966 60.0783 5.16151C57.5086 6.42948 56.4505 9.53828 57.7126 12.1107L75.8594 49.0903C77.1257 51.671 80.2389 52.7336 82.8126 51.4638C85.3863 50.1938 86.4457 47.0723 85.1794 44.4915Z" fill="white"/>
<path d="M162.188 51.5595C171.26 47.3226 176.534 38.3555 176.534 27.437C176.534 12.29 164.329 1.50412e-06 149.258 1.50412e-06C146.055 1.50412e-06 142.977 0.55617 140.118 1.57894C137.151 2.64011 136.365 6.08817 137.806 8.53366C139.206 10.9086 142.075 11.571 144.406 10.8803C145.942 10.4247 147.571 10.1797 149.258 10.1797C158.722 10.1797 166.404 17.9 166.404 27.437C166.404 33.6132 163.182 39.0306 158.334 42.0812C156.731 43.0896 155.485 44.8539 155.49 46.9651C155.495 48.6751 156.308 50.1934 157.555 51.1066C158.823 52.0346 160.541 52.3292 162.188 51.5595Z" fill="white"/>
<path d="M131.577 7.53228L149.714 44.4915C150.98 47.0723 149.92 50.1938 147.346 51.4638C144.773 52.7336 141.66 51.671 140.394 49.0903L122.247 12.1107C120.985 9.53828 122.043 6.42948 124.613 5.16151C127.19 3.88966 130.311 4.95193 131.577 7.53228Z" fill="white"/>
<path d="M476.567 10.5559C484.583 24.4399 482.601 40.8944 472.658 50.2921C470.152 52.6604 466.263 51.6361 464.471 48.6907C462.619 45.6477 463.766 41.7156 465.995 38.937C470.821 32.921 471.625 23.8711 467.095 16.025C466.063 14.2386 464.84 12.6468 463.477 11.2647C461.41 9.1696 460.037 5.61313 461.391 2.85559C462.786 0.0161528 466.877 -1.14298 469.677 1.42702C472.376 3.904 474.61 7.1652 476.567 10.5559Z" fill="white"/>
<path d="M459.999 44.49L441.863 7.53074C440.597 4.95038 437.476 3.8881 434.898 5.15996C432.329 6.42788 431.27 9.53674 432.533 12.1092L450.679 49.0887C451.946 51.6694 455.059 52.7321 457.633 51.4622C460.206 50.1923 461.266 47.0707 459.999 44.49Z" fill="white"/>
<path d="M346 10.8571C348.998 10.8571 351.429 8.42668 351.429 5.42857C351.429 2.43046 348.998 1.50412e-06 346 1.50412e-06C343.002 1.50412e-06 340.571 2.43046 340.571 5.42857C340.571 8.42668 343.002 10.8571 346 10.8571Z" fill="white"/>
<path d="M364.608 44.4915L355.032 18.7671C353.963 15.8964 350.647 14.5794 347.9 15.9347C345.522 17.1079 344.418 19.8894 345.342 22.3741L353.181 43.4286H340.286C337.919 43.4286 336 45.3474 336 47.7143C336 50.0812 337.919 52 340.286 52H360C361.14 52 362.175 51.5551 362.943 50.8295C364.78 49.332 365.698 46.7116 364.608 44.4915Z" fill="white"/>
<path d="M582.246 43.3223L563.626 3.01722C562.401 0.365614 559.231 -0.754947 556.611 0.537541C554.085 1.78415 553.013 4.81742 554.194 7.37491L573.406 48.9488C574.103 50.3711 575.36 51.3323 576.783 51.6961C577.189 51.8244 577.623 51.8937 578.069 51.8937H606.069C608.44 51.8937 610.354 49.9749 610.354 47.608C610.354 45.2411 608.44 43.3223 606.069 43.3223H582.246Z" fill="white"/>
<path d="M519.101 12.055C521.267 8.21114 526.797 8.38228 528.727 12.3529L546.74 49.4101C547.857 51.7071 550.601 52.653 552.87 51.5227C555.139 50.3924 556.074 47.614 554.957 45.317L536.944 8.25971C531.772 -2.38147 516.951 -2.84005 511.146 7.46143L498.513 29.8819C492.957 39.7411 499.99 51.999 511.202 51.999H530.134C532.663 51.999 534.713 49.9236 534.713 47.3635C534.713 44.8035 532.663 42.7282 530.134 42.7282H511.202C507.018 42.7282 504.394 38.1543 506.467 34.4755L519.101 12.055Z" fill="white"/>
<path d="M382.679 3.42857C383.172 1.47237 385.29 1.50412e-06 387.363 1.50412e-06H412.571C414.938 1.50412e-06 416.857 1.91878 416.857 4.28571C416.857 6.65268 414.938 8.57143 412.571 8.57143H394.945L408.894 44.8318C410.16 47.4126 409.101 50.5341 406.527 51.804C406.237 51.9472 405.912 52 405.589 52H383.799C381.661 51.7584 380 49.944 380 47.7416C380 45.3746 381.919 43.4559 384.286 43.4559H396.805L382.989 7.48428C382.723 6.90988 382.57 6.31131 382.523 5.71429L382.506 5.42857V5.15999C382.506 4.57857 382.564 3.99859 382.679 3.42857Z" fill="white"/>
<path d="M632.509 1.50412e-06C630.434 1.50412e-06 628.314 1.47237 627.823 3.42857C627.709 3.99859 627.651 4.57857 627.651 5.15999V5.42857L627.663 5.71429C627.714 6.31131 627.869 6.90988 628.131 7.48428L641.949 43.4559H629.429C627.063 43.4559 625.143 45.3746 625.143 47.7416C625.143 49.944 626.806 51.7584 628.943 52H650.731C651.057 52 651.377 51.9472 651.669 51.804C654.246 50.5341 655.303 47.4126 654.034 44.8318L640.086 8.57143H657.714C660.08 8.57143 662 6.65268 662 4.28571C662 1.91878 660.08 1.50412e-06 657.714 1.50412e-06H632.509Z" fill="white"/>
</svg>
